<svg xmlns="http://www.w3.org/2000/svg" viewBox="0 0 980 480" font-family="system-ui,sans-serif">
<rect width="980" height="480" fill="white"/>
<text x="490.0" y="30" text-anchor="middle" font-size="19" font-weight="700" fill="#1a1d25">What the VLM called each TRUE age (detected vs actual)</text>
<text x="490.0" y="50" text-anchor="middle" font-size="12.5" fill="#8899aa">Each bar = how the model labeled people of that true age. It only reliably says "adult" from ~25+; ages 15–24 are a mixed zone.</text>
<line x1="66" y1="404.0" x2="936" y2="404.0" stroke="#dfe3ea"/>
<text x="58" y="408.0" text-anchor="end" font-size="11" fill="#8899aa">0%</text>
<line x1="66" y1="327.0" x2="936" y2="327.0" stroke="#dfe3ea"/>
<text x="58" y="331.0" text-anchor="end" font-size="11" fill="#8899aa">25%</text>
<line x1="66" y1="250.0" x2="936" y2="250.0" stroke="#dfe3ea"/>
<text x="58" y="254.0" text-anchor="end" font-size="11" fill="#8899aa">50%</text>
<line x1="66" y1="173.0" x2="936" y2="173.0" stroke="#dfe3ea"/>
<text x="58" y="177.0" text-anchor="end" font-size="11" fill="#8899aa">75%</text>
<line x1="66" y1="96.0" x2="936" y2="96.0" stroke="#dfe3ea"/>
<text x="58" y="100.0" text-anchor="end" font-size="11" fill="#8899aa">100%</text>
<rect x="72.0" y="96.0" width="33.9" height="308.0" fill="#e74c3c"/>
<text x="88.9" y="254.0" text-anchor="middle" font-size="9" fill="white">100</text>
<text x="88.9" y="418.0" text-anchor="middle" font-size="9.5" fill="#8899aa">0</text>
<rect x="117.7" y="96.0" width="33.9" height="308.0" fill="#e74c3c"/>
<text x="134.7" y="254.0" text-anchor="middle" font-size="9" fill="white">100</text>
<text x="134.7" y="418.0" text-anchor="middle" font-size="9.5" fill="#8899aa">5</text>
<rect x="163.5" y="111.4" width="33.9" height="292.6" fill="#e74c3c"/>
<text x="180.5" y="261.7" text-anchor="middle" font-size="9" fill="white">95</text>
<rect x="163.5" y="99.1" width="33.9" height="12.3" fill="#f39c12"/>
<rect x="163.5" y="96.0" width="33.9" height="3.1" fill="#27ae60"/>
<text x="180.5" y="418.0" text-anchor="middle" font-size="9.5" fill="#8899aa">10</text>
<rect x="209.3" y="256.2" width="33.9" height="147.8" fill="#e74c3c"/>
<text x="226.3" y="334.1" text-anchor="middle" font-size="9" fill="white">48</text>
<rect x="209.3" y="129.9" width="33.9" height="126.3" fill="#f39c12"/>
<text x="226.3" y="197.0" text-anchor="middle" font-size="9" fill="white">41</text>
<rect x="209.3" y="102.2" width="33.9" height="27.7" fill="#27ae60"/>
<text x="226.3" y="418.0" text-anchor="middle" font-size="9.5" fill="#8899aa">15</text>
<rect x="255.1" y="360.9" width="33.9" height="43.1" fill="#e74c3c"/>
<text x="272.1" y="386.4" text-anchor="middle" font-size="9" fill="white">14</text>
<rect x="255.1" y="213.0" width="33.9" height="147.8" fill="#f39c12"/>
<text x="272.1" y="291.0" text-anchor="middle" font-size="9" fill="white">48</text>
<rect x="255.1" y="102.2" width="33.9" height="110.9" fill="#27ae60"/>
<text x="272.1" y="161.6" text-anchor="middle" font-size="9" fill="white">36</text>
<text x="272.1" y="418.0" text-anchor="middle" font-size="9.5" fill="#8899aa">20</text>
<rect x="300.9" y="394.8" width="33.9" height="9.2" fill="#e74c3c"/>
<rect x="300.9" y="354.7" width="33.9" height="40.0" fill="#f39c12"/>
<rect x="300.9" y="99.1" width="33.9" height="255.6" fill="#27ae60"/>
<text x="317.8" y="230.9" text-anchor="middle" font-size="9" fill="white">83</text>
<text x="317.8" y="418.0" text-anchor="middle" font-size="9.5" fill="#8899aa">25</text>
<rect x="346.7" y="397.8" width="33.9" height="6.2" fill="#e74c3c"/>
<rect x="346.7" y="391.7" width="33.9" height="6.2" fill="#f39c12"/>
<rect x="346.7" y="99.1" width="33.9" height="292.6" fill="#27ae60"/>
<text x="363.6" y="249.4" text-anchor="middle" font-size="9" fill="white">95</text>
<text x="363.6" y="418.0" text-anchor="middle" font-size="9.5" fill="#8899aa">30</text>
<rect x="392.5" y="394.8" width="33.9" height="9.2" fill="#e74c3c"/>
<rect x="392.5" y="99.1" width="33.9" height="295.7" fill="#27ae60"/>
<text x="409.4" y="250.9" text-anchor="middle" font-size="9" fill="white">96</text>
<text x="409.4" y="418.0" text-anchor="middle" font-size="9.5" fill="#8899aa">35</text>
<rect x="438.3" y="400.9" width="33.9" height="3.1" fill="#e74c3c"/>
<rect x="438.3" y="99.1" width="33.9" height="301.8" fill="#27ae60"/>
<text x="455.2" y="254.0" text-anchor="middle" font-size="9" fill="white">98</text>
<text x="455.2" y="418.0" text-anchor="middle" font-size="9.5" fill="#8899aa">40</text>
<rect x="484.1" y="99.1" width="33.9" height="304.9" fill="#27ae60"/>
<text x="501.0" y="255.5" text-anchor="middle" font-size="9" fill="white">99</text>
<rect x="484.1" y="96.0" width="33.9" height="3.1" fill="#8e44ad"/>
<text x="501.0" y="418.0" text-anchor="middle" font-size="9.5" fill="#8899aa">45</text>
<rect x="529.8" y="105.2" width="33.9" height="298.8" fill="#27ae60"/>
<text x="546.8" y="258.6" text-anchor="middle" font-size="9" fill="white">97</text>
<rect x="529.8" y="99.1" width="33.9" height="6.2" fill="#8e44ad"/>
<text x="546.8" y="418.0" text-anchor="middle" font-size="9.5" fill="#8899aa">50</text>
<rect x="575.6" y="400.9" width="33.9" height="3.1" fill="#e74c3c"/>
<rect x="575.6" y="102.2" width="33.9" height="298.8" fill="#27ae60"/>
<text x="592.6" y="255.5" text-anchor="middle" font-size="9" fill="white">97</text>
<rect x="575.6" y="96.0" width="33.9" height="6.2" fill="#8e44ad"/>
<text x="592.6" y="418.0" text-anchor="middle" font-size="9.5" fill="#8899aa">55</text>
<rect x="621.4" y="400.9" width="33.9" height="3.1" fill="#e74c3c"/>
<rect x="621.4" y="114.5" width="33.9" height="286.4" fill="#27ae60"/>
<text x="638.4" y="261.7" text-anchor="middle" font-size="9" fill="white">93</text>
<rect x="621.4" y="96.0" width="33.9" height="18.5" fill="#8e44ad"/>
<text x="638.4" y="418.0" text-anchor="middle" font-size="9.5" fill="#8899aa">60</text>
<rect x="667.2" y="400.9" width="33.9" height="3.1" fill="#e74c3c"/>
<rect x="667.2" y="173.0" width="33.9" height="227.9" fill="#27ae60"/>
<text x="684.2" y="291.0" text-anchor="middle" font-size="9" fill="white">74</text>
<rect x="667.2" y="92.9" width="33.9" height="80.1" fill="#8e44ad"/>
<text x="684.2" y="137.0" text-anchor="middle" font-size="9" fill="white">26</text>
<text x="684.2" y="418.0" text-anchor="middle" font-size="9.5" fill="#8899aa">65</text>
<rect x="713.0" y="400.9" width="33.9" height="3.1" fill="#e74c3c"/>
<rect x="713.0" y="197.6" width="33.9" height="203.3" fill="#27ae60"/>
<text x="729.9" y="303.3" text-anchor="middle" font-size="9" fill="white">66</text>
<rect x="713.0" y="92.9" width="33.9" height="104.7" fill="#8e44ad"/>
<text x="729.9" y="149.3" text-anchor="middle" font-size="9" fill="white">34</text>
<text x="729.9" y="418.0" text-anchor="middle" font-size="9.5" fill="#8899aa">70</text>
<rect x="758.8" y="330.1" width="33.9" height="73.9" fill="#27ae60"/>
<text x="775.7" y="371.0" text-anchor="middle" font-size="9" fill="white">24</text>
<rect x="758.8" y="96.0" width="33.9" height="234.1" fill="#8e44ad"/>
<text x="775.7" y="217.0" text-anchor="middle" font-size="9" fill="white">76</text>
<text x="775.7" y="418.0" text-anchor="middle" font-size="9.5" fill="#8899aa">75</text>
<rect x="804.6" y="373.2" width="33.9" height="30.8" fill="#27ae60"/>
<rect x="804.6" y="96.0" width="33.9" height="277.2" fill="#8e44ad"/>
<text x="821.5" y="238.6" text-anchor="middle" font-size="9" fill="white">90</text>
<text x="821.5" y="418.0" text-anchor="middle" font-size="9.5" fill="#8899aa">80</text>
<rect x="850.4" y="370.1" width="33.9" height="33.9" fill="#27ae60"/>
<rect x="850.4" y="96.0" width="33.9" height="274.1" fill="#8e44ad"/>
<text x="867.3" y="237.1" text-anchor="middle" font-size="9" fill="white">89</text>
<text x="867.3" y="418.0" text-anchor="middle" font-size="9.5" fill="#8899aa">85</text>
<rect x="896.2" y="96.0" width="33.9" height="308.0" fill="#8e44ad"/>
<text x="913.1" y="254.0" text-anchor="middle" font-size="9" fill="white">100</text>
<text x="913.1" y="418.0" text-anchor="middle" font-size="9.5" fill="#8899aa">90</text>
<text x="501.0" y="438.0" text-anchor="middle" font-size="12" fill="#1a1d25">true age (5-year buckets, start age shown)</text>
<rect x="66" y="454" width="12" height="12" rx="2" fill="#e74c3c"/><text x="82" y="464" font-size="11" fill="#8899aa">VLM said child</text>
<rect x="221" y="454" width="12" height="12" rx="2" fill="#f39c12"/><text x="237" y="464" font-size="11" fill="#8899aa">VLM said teen</text>
<rect x="376" y="454" width="12" height="12" rx="2" fill="#27ae60"/><text x="392" y="464" font-size="11" fill="#8899aa">VLM said adult</text>
<rect x="531" y="454" width="12" height="12" rx="2" fill="#8e44ad"/><text x="547" y="464" font-size="11" fill="#8899aa">VLM said senior</text>
</svg>