<svg xmlns="http://www.w3.org/2000/svg" viewBox="0 0 1180 520" font-family="system-ui,sans-serif">
<rect width="1180" height="520" fill="white"/>
<text x="590.0" y="30" text-anchor="middle" font-size="19" font-weight="700" fill="#1a1a2e">y26n_humanshaped_v2 @320 — per-class AP vs confidence threshold, fp32 vs two INT8 exports</text>
<text x="590.0" y="51" text-anchor="middle" font-size="12.5" fill="#7a7a8c">haramblur_holdout (QA set, 11,494 images) · AP at threshold t = map_eval.py AP with every detection below t deleted · solid = AP50-95, dashed = AP50 · vlm-cluster/ap_sweep.py, 0.05 grid</text>
<rect x="70" y="95" width="300" height="300" fill="none" stroke="#e4e4ea"/>
<line x1="70" y1="395.0" x2="370" y2="395.0" stroke="#e4e4ea"/>
<text x="64" y="399.0" text-anchor="end" font-size="10.5" fill="#7a7a8c">0.0</text>
<line x1="70" y1="335.0" x2="370" y2="335.0" stroke="#e4e4ea"/>
<text x="64" y="339.0" text-anchor="end" font-size="10.5" fill="#7a7a8c">0.2</text>
<line x1="70" y1="275.0" x2="370" y2="275.0" stroke="#e4e4ea"/>
<text x="64" y="279.0" text-anchor="end" font-size="10.5" fill="#7a7a8c">0.4</text>
<line x1="70" y1="215.0" x2="370" y2="215.0" stroke="#e4e4ea"/>
<text x="64" y="219.0" text-anchor="end" font-size="10.5" fill="#7a7a8c">0.6</text>
<line x1="70" y1="155.0" x2="370" y2="155.0" stroke="#e4e4ea"/>
<text x="64" y="159.0" text-anchor="end" font-size="10.5" fill="#7a7a8c">0.8</text>
<line x1="70" y1="95.0" x2="370" y2="95.0" stroke="#e4e4ea"/>
<text x="64" y="99.0" text-anchor="end" font-size="10.5" fill="#7a7a8c">1.0</text>
<line x1="70.0" y1="95" x2="70.0" y2="395" stroke="#e4e4ea"/>
<text x="70.0" y="410" text-anchor="middle" font-size="10.5" fill="#7a7a8c">0.0</text>
<line x1="130.0" y1="95" x2="130.0" y2="395" stroke="#e4e4ea"/>
<text x="130.0" y="410" text-anchor="middle" font-size="10.5" fill="#7a7a8c">0.2</text>
<line x1="190.0" y1="95" x2="190.0" y2="395" stroke="#e4e4ea"/>
<text x="190.0" y="410" text-anchor="middle" font-size="10.5" fill="#7a7a8c">0.4</text>
<line x1="250.0" y1="95" x2="250.0" y2="395" stroke="#e4e4ea"/>
<text x="250.0" y="410" text-anchor="middle" font-size="10.5" fill="#7a7a8c">0.6</text>
<line x1="310.0" y1="95" x2="310.0" y2="395" stroke="#e4e4ea"/>
<text x="310.0" y="410" text-anchor="middle" font-size="10.5" fill="#7a7a8c">0.8</text>
<line x1="370.0" y1="95" x2="370.0" y2="395" stroke="#e4e4ea"/>
<text x="370.0" y="410" text-anchor="middle" font-size="10.5" fill="#7a7a8c">1.0</text>
<text x="220.0" y="427" text-anchor="middle" font-size="11.5" fill="#1a1a2e">confidence threshold (detections below it deleted)</text>
<text transform="translate(30,245.0) rotate(-90)" text-anchor="middle" font-size="11.5" fill="#1a1a2e">AP</text>
<line x1="205.0" y1="95" x2="205.0" y2="395" stroke="#7a7a8c" stroke-dasharray="4 3"/>
<text x="209.0" y="107" font-size="10" fill="#7a7a8c">shipped 0.45</text>
<text x="70" y="87" font-size="13" font-weight="700" fill="#1a1a2e">Woman <tspan font-weight="400" fill="#7a7a8c">· 5,690 GT</tspan></text>
<polyline points="85.0,138.7 100.0,139.9 115.0,140.8 130.0,142.2 145.0,142.8 160.0,144.3 175.0,146.2 190.0,147.0 205.0,148.6 220.0,151.6 235.0,153.7 250.0,156.2 265.0,159.6 280.0,164.9 295.0,169.9 310.0,176.8 325.0,187.9 340.0,208.2 355.0,262.3" fill="none" stroke="#2a78d6" stroke-width="2" stroke-linejoin="round"/>
<polyline points="85.0,123.2 100.0,123.2 115.0,125.6 130.0,125.6 145.0,128.2 160.0,130.8 175.0,130.8 190.0,133.6 205.0,136.3 220.0,139.1 235.0,141.9 250.0,144.7 265.0,150.4 280.0,156.2 295.0,162.0 310.0,167.8 325.0,182.3 340.0,205.8 355.0,261.7" fill="none" stroke="#2a78d6" stroke-width="2" stroke-linejoin="round" stroke-dasharray="5 4"/>
<polyline points="85.0,147.7 100.0,148.4 115.0,149.8 130.0,151.4 145.0,152.2 160.0,153.2 175.0,154.2 190.0,156.1 205.0,158.6 220.0,395.0 235.0,395.0 250.0,395.0 265.0,395.0 280.0,395.0 295.0,395.0 310.0,395.0 325.0,395.0 340.0,395.0 355.0,395.0" fill="none" stroke="#eb6834" stroke-width="2" stroke-linejoin="round"/>
<polyline points="85.0,120.8 100.0,123.2 115.0,123.2 130.0,125.7 145.0,128.3 160.0,128.3 175.0,131.0 190.0,133.8 205.0,136.6 220.0,395.0 235.0,395.0 250.0,395.0 265.0,395.0 280.0,395.0 295.0,395.0 310.0,395.0 325.0,395.0 340.0,395.0 355.0,395.0" fill="none" stroke="#eb6834" stroke-width="2" stroke-linejoin="round" stroke-dasharray="5 4"/>
<line x1="220.0" y1="95" x2="220.0" y2="395" stroke="#eb6834" stroke-width="1" stroke-dasharray="2 3"/>
<polyline points="85.0,138.6 100.0,140.0 115.0,140.9 130.0,142.2 145.0,142.9 160.0,143.8 175.0,145.8 190.0,147.7 205.0,150.1 220.0,150.7 235.0,188.7 250.0,192.0 265.0,195.4 280.0,395.0 295.0,395.0 310.0,395.0 325.0,395.0 340.0,395.0 355.0,395.0" fill="none" stroke="#1baf7a" stroke-width="2" stroke-linejoin="round"/>
<polyline points="85.0,122.4 100.0,124.8 115.0,124.8 130.0,127.4 145.0,127.4 160.0,130.1 175.0,130.1 190.0,132.8 205.0,135.6 220.0,138.4 235.0,181.4 250.0,187.2 265.0,190.0 280.0,395.0 295.0,395.0 310.0,395.0 325.0,395.0 340.0,395.0 355.0,395.0" fill="none" stroke="#1baf7a" stroke-width="2" stroke-linejoin="round" stroke-dasharray="5 4"/>
<line x1="278.2" y1="95" x2="278.2" y2="395" stroke="#1baf7a" stroke-width="1" stroke-dasharray="2 3"/>
<text x="74" y="373" font-size="10.5" fill="#1a1a2e">AP50-95 @0.45: 0.821 / 0.788 / 0.816</text>
<text x="74" y="387" font-size="10.5" fill="#7a7a8c">no threshold (map_eval): 0.860 / 0.833 / 0.861</text>
<rect x="440" y="95" width="300" height="300" fill="none" stroke="#e4e4ea"/>
<line x1="440" y1="395.0" x2="740" y2="395.0" stroke="#e4e4ea"/>
<text x="434" y="399.0" text-anchor="end" font-size="10.5" fill="#7a7a8c">0.0</text>
<line x1="440" y1="335.0" x2="740" y2="335.0" stroke="#e4e4ea"/>
<text x="434" y="339.0" text-anchor="end" font-size="10.5" fill="#7a7a8c">0.2</text>
<line x1="440" y1="275.0" x2="740" y2="275.0" stroke="#e4e4ea"/>
<text x="434" y="279.0" text-anchor="end" font-size="10.5" fill="#7a7a8c">0.4</text>
<line x1="440" y1="215.0" x2="740" y2="215.0" stroke="#e4e4ea"/>
<text x="434" y="219.0" text-anchor="end" font-size="10.5" fill="#7a7a8c">0.6</text>
<line x1="440" y1="155.0" x2="740" y2="155.0" stroke="#e4e4ea"/>
<text x="434" y="159.0" text-anchor="end" font-size="10.5" fill="#7a7a8c">0.8</text>
<line x1="440" y1="95.0" x2="740" y2="95.0" stroke="#e4e4ea"/>
<text x="434" y="99.0" text-anchor="end" font-size="10.5" fill="#7a7a8c">1.0</text>
<line x1="440.0" y1="95" x2="440.0" y2="395" stroke="#e4e4ea"/>
<text x="440.0" y="410" text-anchor="middle" font-size="10.5" fill="#7a7a8c">0.0</text>
<line x1="500.0" y1="95" x2="500.0" y2="395" stroke="#e4e4ea"/>
<text x="500.0" y="410" text-anchor="middle" font-size="10.5" fill="#7a7a8c">0.2</text>
<line x1="560.0" y1="95" x2="560.0" y2="395" stroke="#e4e4ea"/>
<text x="560.0" y="410" text-anchor="middle" font-size="10.5" fill="#7a7a8c">0.4</text>
<line x1="620.0" y1="95" x2="620.0" y2="395" stroke="#e4e4ea"/>
<text x="620.0" y="410" text-anchor="middle" font-size="10.5" fill="#7a7a8c">0.6</text>
<line x1="680.0" y1="95" x2="680.0" y2="395" stroke="#e4e4ea"/>
<text x="680.0" y="410" text-anchor="middle" font-size="10.5" fill="#7a7a8c">0.8</text>
<line x1="740.0" y1="95" x2="740.0" y2="395" stroke="#e4e4ea"/>
<text x="740.0" y="410" text-anchor="middle" font-size="10.5" fill="#7a7a8c">1.0</text>
<text x="590.0" y="427" text-anchor="middle" font-size="11.5" fill="#1a1a2e">confidence threshold (detections below it deleted)</text>
<text transform="translate(400,245.0) rotate(-90)" text-anchor="middle" font-size="11.5" fill="#1a1a2e">AP</text>
<line x1="575.0" y1="95" x2="575.0" y2="395" stroke="#7a7a8c" stroke-dasharray="4 3"/>
<text x="579.0" y="107" font-size="10" fill="#7a7a8c">shipped 0.45</text>
<text x="440" y="87" font-size="13" font-weight="700" fill="#1a1a2e">Man <tspan font-weight="400" fill="#7a7a8c">· 8,616 GT</tspan></text>
<polyline points="455.0,170.9 470.0,173.2 485.0,175.3 500.0,177.8 515.0,179.4 530.0,182.0 545.0,184.5 560.0,187.2 575.0,190.0 590.0,193.0 605.0,196.9 620.0,200.2 635.0,204.3 650.0,209.0 665.0,215.6 680.0,222.7 695.0,232.0 710.0,249.5 725.0,290.3" fill="none" stroke="#2a78d6" stroke-width="2" stroke-linejoin="round"/>
<polyline points="455.0,134.7 470.0,138.7 485.0,140.9 500.0,145.6 515.0,148.1 530.0,153.2 545.0,155.8 560.0,161.2 575.0,166.6 590.0,169.3 605.0,177.7 620.0,180.5 635.0,186.2 650.0,194.7 665.0,203.4 680.0,212.0 695.0,223.7 710.0,244.2 725.0,288.4" fill="none" stroke="#2a78d6" stroke-width="2" stroke-linejoin="round" stroke-dasharray="5 4"/>
<polyline points="455.0,176.5 470.0,178.6 485.0,180.6 500.0,183.2 515.0,185.2 530.0,186.8 545.0,189.8 560.0,192.7 575.0,196.3 590.0,395.0 605.0,395.0 620.0,395.0 635.0,395.0 650.0,395.0 665.0,395.0 680.0,395.0 695.0,395.0 710.0,395.0 725.0,395.0" fill="none" stroke="#eb6834" stroke-width="2" stroke-linejoin="round"/>
<polyline points="455.0,131.2 470.0,133.2 485.0,137.5 500.0,142.2 515.0,144.7 530.0,147.3 545.0,155.2 560.0,157.8 575.0,163.3 590.0,395.0 605.0,395.0 620.0,395.0 635.0,395.0 650.0,395.0 665.0,395.0 680.0,395.0 695.0,395.0 710.0,395.0 725.0,395.0" fill="none" stroke="#eb6834" stroke-width="2" stroke-linejoin="round" stroke-dasharray="5 4"/>
<line x1="590.0" y1="95" x2="590.0" y2="395" stroke="#eb6834" stroke-width="1" stroke-dasharray="2 3"/>
<polyline points="455.0,170.5 470.0,172.4 485.0,174.7 500.0,176.8 515.0,178.7 530.0,181.1 545.0,183.6 560.0,186.1 575.0,189.2 590.0,190.8 605.0,242.4 620.0,243.7 635.0,246.2 650.0,395.0 665.0,395.0 680.0,395.0 695.0,395.0 710.0,395.0 725.0,395.0" fill="none" stroke="#1baf7a" stroke-width="2" stroke-linejoin="round"/>
<polyline points="455.0,134.3 470.0,138.3 485.0,140.6 500.0,145.2 515.0,147.7 530.0,152.8 545.0,155.4 560.0,160.7 575.0,163.4 590.0,168.9 605.0,234.7 620.0,234.7 635.0,237.6 650.0,395.0 665.0,395.0 680.0,395.0 695.0,395.0 710.0,395.0 725.0,395.0" fill="none" stroke="#1baf7a" stroke-width="2" stroke-linejoin="round" stroke-dasharray="5 4"/>
<line x1="648.2" y1="95" x2="648.2" y2="395" stroke="#1baf7a" stroke-width="1" stroke-dasharray="2 3"/>
<text x="444" y="373" font-size="10.5" fill="#1a1a2e">AP50-95 @0.45: 0.683 / 0.662 / 0.686</text>
<text x="444" y="387" font-size="10.5" fill="#7a7a8c">no threshold (map_eval): 0.756 / 0.736 / 0.759</text>
<rect x="810" y="95" width="300" height="300" fill="none" stroke="#e4e4ea"/>
<line x1="810" y1="395.0" x2="1110" y2="395.0" stroke="#e4e4ea"/>
<text x="804" y="399.0" text-anchor="end" font-size="10.5" fill="#7a7a8c">0.0</text>
<line x1="810" y1="335.0" x2="1110" y2="335.0" stroke="#e4e4ea"/>
<text x="804" y="339.0" text-anchor="end" font-size="10.5" fill="#7a7a8c">0.2</text>
<line x1="810" y1="275.0" x2="1110" y2="275.0" stroke="#e4e4ea"/>
<text x="804" y="279.0" text-anchor="end" font-size="10.5" fill="#7a7a8c">0.4</text>
<line x1="810" y1="215.0" x2="1110" y2="215.0" stroke="#e4e4ea"/>
<text x="804" y="219.0" text-anchor="end" font-size="10.5" fill="#7a7a8c">0.6</text>
<line x1="810" y1="155.0" x2="1110" y2="155.0" stroke="#e4e4ea"/>
<text x="804" y="159.0" text-anchor="end" font-size="10.5" fill="#7a7a8c">0.8</text>
<line x1="810" y1="95.0" x2="1110" y2="95.0" stroke="#e4e4ea"/>
<text x="804" y="99.0" text-anchor="end" font-size="10.5" fill="#7a7a8c">1.0</text>
<line x1="810.0" y1="95" x2="810.0" y2="395" stroke="#e4e4ea"/>
<text x="810.0" y="410" text-anchor="middle" font-size="10.5" fill="#7a7a8c">0.0</text>
<line x1="870.0" y1="95" x2="870.0" y2="395" stroke="#e4e4ea"/>
<text x="870.0" y="410" text-anchor="middle" font-size="10.5" fill="#7a7a8c">0.2</text>
<line x1="930.0" y1="95" x2="930.0" y2="395" stroke="#e4e4ea"/>
<text x="930.0" y="410" text-anchor="middle" font-size="10.5" fill="#7a7a8c">0.4</text>
<line x1="990.0" y1="95" x2="990.0" y2="395" stroke="#e4e4ea"/>
<text x="990.0" y="410" text-anchor="middle" font-size="10.5" fill="#7a7a8c">0.6</text>
<line x1="1050.0" y1="95" x2="1050.0" y2="395" stroke="#e4e4ea"/>
<text x="1050.0" y="410" text-anchor="middle" font-size="10.5" fill="#7a7a8c">0.8</text>
<line x1="1110.0" y1="95" x2="1110.0" y2="395" stroke="#e4e4ea"/>
<text x="1110.0" y="410" text-anchor="middle" font-size="10.5" fill="#7a7a8c">1.0</text>
<text x="960.0" y="427" text-anchor="middle" font-size="11.5" fill="#1a1a2e">confidence threshold (detections below it deleted)</text>
<text transform="translate(770,245.0) rotate(-90)" text-anchor="middle" font-size="11.5" fill="#1a1a2e">AP</text>
<line x1="945.0" y1="95" x2="945.0" y2="395" stroke="#7a7a8c" stroke-dasharray="4 3"/>
<text x="949.0" y="107" font-size="10" fill="#7a7a8c">shipped 0.45</text>
<text x="810" y="87" font-size="13" font-weight="700" fill="#1a1a2e">Child <tspan font-weight="400" fill="#7a7a8c">· 1,833 GT</tspan></text>
<polyline points="825.0,174.5 840.0,177.0 855.0,178.3 870.0,179.5 885.0,182.0 900.0,185.0 915.0,186.9 930.0,189.2 945.0,190.2 960.0,192.8 975.0,196.6 990.0,200.0 1005.0,205.7 1020.0,210.9 1035.0,218.5 1050.0,226.0 1065.0,235.6 1080.0,250.8 1095.0,289.4" fill="none" stroke="#2a78d6" stroke-width="2" stroke-linejoin="round"/>
<polyline points="825.0,149.8 840.0,152.0 855.0,154.3 870.0,156.8 885.0,159.4 900.0,164.6 915.0,164.6 930.0,170.0 945.0,172.7 960.0,175.5 975.0,181.0 990.0,183.8 1005.0,192.3 1020.0,197.9 1035.0,209.3 1050.0,217.9 1065.0,229.5 1080.0,246.9 1095.0,288.1" fill="none" stroke="#2a78d6" stroke-width="2" stroke-linejoin="round" stroke-dasharray="5 4"/>
<polyline points="825.0,179.5 840.0,181.5 855.0,183.9 870.0,187.2 885.0,188.2 900.0,188.9 915.0,191.4 930.0,193.5 945.0,196.3 960.0,395.0 975.0,395.0 990.0,395.0 1005.0,395.0 1020.0,395.0 1035.0,395.0 1050.0,395.0 1065.0,395.0 1080.0,395.0 1095.0,395.0" fill="none" stroke="#eb6834" stroke-width="2" stroke-linejoin="round"/>
<polyline points="825.0,144.2 840.0,146.3 855.0,151.0 870.0,153.5 885.0,156.0 900.0,158.6 915.0,161.2 930.0,163.9 945.0,169.3 960.0,395.0 975.0,395.0 990.0,395.0 1005.0,395.0 1020.0,395.0 1035.0,395.0 1050.0,395.0 1065.0,395.0 1080.0,395.0 1095.0,395.0" fill="none" stroke="#eb6834" stroke-width="2" stroke-linejoin="round" stroke-dasharray="5 4"/>
<line x1="960.0" y1="95" x2="960.0" y2="395" stroke="#eb6834" stroke-width="1" stroke-dasharray="2 3"/>
<polyline points="825.0,171.4 840.0,173.8 855.0,176.1 870.0,177.9 885.0,179.3 900.0,180.8 915.0,183.9 930.0,185.6 945.0,187.4 960.0,188.4 975.0,214.8 990.0,218.8 1005.0,221.2 1020.0,395.0 1035.0,395.0 1050.0,395.0 1065.0,395.0 1080.0,395.0 1095.0,395.0" fill="none" stroke="#1baf7a" stroke-width="2" stroke-linejoin="round"/>
<polyline points="825.0,148.0 840.0,150.1 855.0,152.4 870.0,157.2 885.0,157.2 900.0,159.7 915.0,164.8 930.0,167.4 945.0,170.1 960.0,170.1 975.0,205.6 990.0,211.0 1005.0,213.8 1020.0,395.0 1035.0,395.0 1050.0,395.0 1065.0,395.0 1080.0,395.0 1095.0,395.0" fill="none" stroke="#1baf7a" stroke-width="2" stroke-linejoin="round" stroke-dasharray="5 4"/>
<line x1="1018.2" y1="95" x2="1018.2" y2="395" stroke="#1baf7a" stroke-width="1" stroke-dasharray="2 3"/>
<text x="814" y="373" font-size="10.5" fill="#1a1a2e">AP50-95 @0.45: 0.682 / 0.662 / 0.692</text>
<text x="814" y="387" font-size="10.5" fill="#7a7a8c">no threshold (map_eval): 0.749 / 0.731 / 0.759</text>
<line x1="70" y1="451" x2="92" y2="451" stroke="#2a78d6" stroke-width="2.5"/>
<text x="98" y="455" font-size="11.5" fill="#1a1a2e">fp32 .pt (reference)</text>
<line x1="320" y1="451" x2="342" y2="451" stroke="#eb6834" stroke-width="2.5"/>
<text x="348" y="455" font-size="11.5" fill="#1a1a2e">INT8 W8A8 TFLite</text>
<line x1="570" y1="451" x2="592" y2="451" stroke="#1baf7a" stroke-width="2.5"/>
<text x="598" y="455" font-size="11.5" fill="#1a1a2e">INT8 + float decode ops (fix)</text>
<line x1="820" y1="451" x2="842" y2="451" stroke="#1a1a2e" stroke-width="2"/><text x="848" y="455" font-size="11.5" fill="#1a1a2e">AP50-95</text>
<line x1="915" y1="451" x2="937" y2="451" stroke="#1a1a2e" stroke-width="2" stroke-dasharray="5 4"/><text x="943" y="455" font-size="11.5" fill="#1a1a2e">AP50</text>
<text x="70" y="475" font-size="11" fill="#7a7a8c">Dotted verticals: the highest confidence any box of that class reaches in the INT8 export — above it the class has no detections and AP is 0.</text>
</svg>